<svg width="350" height="376" viewBox="0 0 350 376" fill="none" xmlns="http://www.w3.org/2000/svg">
<path d="M0 18C0 15.2386 2.23858 13 5 13H345C347.761 13 350 15.2386 350 18V358C350 360.761 347.761 363 345 363H4.99999C2.23857 363 0 360.761 0 358V18Z" fill="#530293"/>
<path d="M172.546 174.5C179.859 161.833 198.141 161.833 205.454 174.5L272.138 290C279.452 302.667 270.31 318.5 255.684 318.5H122.316C107.69 318.5 98.5485 302.667 105.862 290L172.546 174.5Z" fill="#A11FB6"/>
<path d="M205.454 201.5C198.141 214.167 179.859 214.167 172.546 201.5L105.862 86C98.5484 73.3333 107.69 57.5 122.316 57.5L255.684 57.5C270.31 57.5 279.452 73.3333 272.138 86L205.454 201.5Z" fill="#A11FB6"/>
<path d="M144.351 174.253C151.664 161.587 169.947 161.587 177.26 174.253L243.776 289.462C251.089 302.129 241.948 317.962 227.322 317.962H94.29C79.6638 317.962 70.5224 302.129 77.8355 289.462L144.351 174.253Z" fill="white"/>
<path d="M177.26 201.112C169.947 213.778 151.664 213.778 144.351 201.112L77.8356 85.9029C70.5225 73.2362 79.6638 57.4029 94.29 57.4029L227.322 57.4029C241.948 57.4029 251.089 73.2362 243.776 85.9029L177.26 201.112Z" fill="white"/>
<path d="M144.546 203.5C151.859 190.833 170.141 190.833 177.454 203.5L219.89 277C227.203 289.667 218.061 305.5 203.435 305.5H118.565C103.939 305.5 94.7972 289.667 102.11 277L144.546 203.5Z" fill="#E397EF"/>
<path d="M177.454 173.5C170.141 186.167 151.859 186.167 144.546 173.5L102.11 100C94.7972 87.3333 103.939 71.5 118.565 71.5L203.435 71.5C218.061 71.5 227.203 87.3333 219.89 100L177.454 173.5Z" fill="#DEB7E4" fill-opacity="0.63"/>
</svg>
