<svg width="350" height="377" viewBox="0 0 350 377" fill="none" xmlns="http://www.w3.org/2000/svg">
<path d="M0 18C0 15.2386 2.23858 13 5 13H345C347.761 13 350 15.2386 350 18V358C350 360.761 347.761 363 345 363H4.99999C2.23857 363 0 360.761 0 358V18Z" fill="#820996"/>
<path d="M165.546 174.5C172.859 161.833 191.141 161.833 198.454 174.5L265.138 290C272.452 302.667 263.31 318.5 248.684 318.5H115.316C100.69 318.5 91.5485 302.667 98.8616 290L165.546 174.5Z" fill="#A11FB6"/>
<path d="M198.454 201.5C191.141 214.167 172.859 214.167 165.546 201.5L98.8615 86C91.5484 73.3333 100.69 57.5 115.316 57.5L248.684 57.5C263.31 57.5 272.452 73.3333 265.138 86L198.454 201.5Z" fill="#A11FB6"/>
<path d="M151.046 175.865C158.359 163.199 176.641 163.199 183.954 175.865L250.205 290.615C257.519 303.282 248.377 319.115 233.751 319.115H101.249C86.6228 319.115 77.4815 303.282 84.7946 290.615L151.046 175.865Z" fill="white"/>
<path d="M183.954 202.5C176.641 215.167 158.359 215.167 151.046 202.5L84.7946 87.75C77.4815 75.0833 86.6228 59.25 101.249 59.25L233.751 59.25C248.377 59.25 257.519 75.0833 250.205 87.75L183.954 202.5Z" fill="white"/>
<path d="M150.546 203.5C157.859 190.833 176.141 190.833 183.454 203.5L225.89 277C233.203 289.667 224.061 305.5 209.435 305.5H124.565C109.939 305.5 100.797 289.667 108.11 277L150.546 203.5Z" fill="#E397EF"/>
<path d="M183.454 173.5C176.141 186.167 157.859 186.167 150.546 173.5L108.11 100C100.797 87.3333 109.939 71.5 124.565 71.5L209.435 71.5C224.061 71.5 233.203 87.3333 225.89 100L183.454 173.5Z" fill="#DEB7E4" fill-opacity="0.63"/>
</svg>
