<svg width="135" height="135" viewBox="0 0 135 135" fill="none" xmlns="http://www.w3.org/2000/svg">
<circle cx="67.5" cy="67.5" r="67.5" fill="#820996"/>
<circle cx="67.5" cy="67.5" r="54" fill="#A11FB6"/>
<rect x="29" y="55" width="15" height="24" rx="3" fill="white"/>
<path d="M31.2862 69.174C30.0426 67.9914 30.0426 66.0086 31.2862 64.826L62.1827 35.4456C64.0933 33.6288 67.25 34.9831 67.25 37.6196L67.25 96.3804C67.25 99.0169 64.0933 100.371 62.1827 98.5544L31.2862 69.174Z" fill="white"/>
<path d="M68.8043 58.4224C68.5767 56.8394 69.6826 55.3318 71.2753 55.4768C71.9471 55.538 72.6131 55.6559 73.2655 55.8301C74.8464 56.2521 76.312 56.9949 77.566 58.0099C78.82 59.0248 79.8339 60.2888 80.5412 61.7189C81.2485 63.1489 81.6332 64.7127 81.67 66.3074C81.7067 67.9021 81.3947 69.4917 80.7545 70.9717C80.1143 72.4517 79.1603 73.7887 77.9553 74.8947C76.7502 76.0008 75.3213 76.8509 73.7625 77.3893C73.1473 77.6018 72.5173 77.7638 71.8792 77.8745C70.268 78.154 69.0399 76.6804 69.1971 75.0527L69.2421 74.5869C69.3697 73.2656 70.5698 72.3373 71.8245 71.9039C72.5804 71.6429 73.2733 71.2306 73.8576 70.6943C74.442 70.1579 74.9046 69.5096 75.215 68.792C75.5255 68.0743 75.6768 67.3035 75.6589 66.5302C75.6411 65.7569 75.4546 64.9986 75.1116 64.3051C74.7686 63.6117 74.2769 62.9987 73.6689 62.5066C73.0608 62.0144 72.3501 61.6542 71.5835 61.4496C70.3143 61.1108 69.0686 60.2608 68.8816 58.9605L68.8043 58.4224Z" fill="white"/>
<path d="M76.5622 47.9449C77.0326 46.2292 78.8229 45.2022 80.4462 45.9303C83.8665 47.4643 86.8622 49.8726 89.137 52.9499C92.0621 56.9071 93.6338 61.7524 93.6113 66.7441C93.5889 71.7358 91.9737 76.5987 89.0129 80.5883C86.714 83.6861 83.7023 86.1248 80.2747 87.6968C78.6466 88.4436 76.8389 87.4104 76.3784 85.6794C75.9321 84.0017 76.9297 82.3021 78.4707 81.5027C80.6464 80.3739 82.5608 78.747 84.056 76.7323C86.1847 73.8639 87.3461 70.3675 87.3622 66.7786C87.3783 63.1896 86.2483 59.7059 84.1452 56.8608C82.6867 54.8877 80.816 53.2972 78.6843 52.1939C77.1153 51.3818 76.095 49.6487 76.5622 47.9449Z" fill="white"/>
<path d="M82.1845 39.8204C82.5746 38.4496 84.0105 37.647 85.3391 38.1628C90.5003 40.1668 95.0257 43.6055 98.3989 48.1197C102.296 53.3347 104.45 59.711 104.547 66.3146C104.643 72.9183 102.677 79.4024 98.935 84.8171C95.6988 89.5007 91.2816 93.1713 86.1878 95.444C84.8775 96.0286 83.3962 95.2786 82.9607 93.9115C82.5398 92.59 83.2574 91.1862 84.5168 90.6053C88.6442 88.7019 92.2234 85.6912 94.8615 81.8733C97.9812 77.3584 99.621 71.9519 99.5405 66.4456C99.4601 60.9393 97.6637 55.6226 94.4144 51.2742C91.6838 47.6199 88.0477 44.8109 83.9001 43.1212C82.5895 42.5873 81.7972 41.1816 82.1845 39.8204Z" fill="white"/>
</svg>
